:SAMPLES-PER-SECOND 30
:FRAME-RANGE 1-3358
:FULLY-SPECIFIED
:DEGREES
945
root  4.27251 37.0561 -20.8229 168.339 -71.3025 -164.27
RightUpLeg  -29.5293 3.88071 11.0459
RightLeg  36.4575 -10.8956 -8.78493
RightFoot  -10.091 -0.0438725 -2.23406
RightToes  -5.8209e-011 0 -3.6325e-017
Spine  7.95155 -4.66039 2.98849
Spine1  5.22162 -6.56805 8.15676
HEad  8.91569 -11.4111 -12.0565
LeftShoulder1  2.34199 -3.29263 -28.3943
LeftArm  23.6681 -23.635 -48.0932
LeftForeArm  9.21739 -6.78129 -17.0754
LeftHand  0.223014 -2.16816 -3.255
RightShoulder  6.61216 7.64415 51.9331
RightArm  -10.5387 -1.50068 9.97813
RightForeArm  -11.23 -7.8311 16.468
RightHand  0.356679 0.0187802 7.68924
LeftUpLeg  7.01647 21.8231 5.71792
LeftLeg  39.61 -0.480437 -0.0438053
LeftFoot  -13.3281 -0.302473 -21.7777
LeftToes  -4.03819e-010 -8.71445e-011 8.52097e-011
946
root  3.08287 37.0339 -20.6617 165.008 -70.9202 -160.273
RightUpLeg  -28.5487 2.98419 11.7251
RightLeg  37.3541 -10.0004 -8.36609
RightFoot  -12.284 -0.0886177 -0.667594
RightToes  -5.8209e-011 0 -3.6325e-017
Spine  8.61145 -4.00093 6.37304
Spine1  5.00033 -5.07561 7.1684
HEad  8.27974 -8.90946 -8.39406
LeftShoulder1  2.27098 -3.04684 -28.6064
LeftArm  24.5139 -20.0513 -48.2247
LeftForeArm  9.22112 -5.29145 -17.7657
LeftHand  0.252722 -2.1637 -3.71497
RightShoulder  7.01631 8.35192 51.8174
RightArm  -8.47376 -1.78046 9.63087
RightForeArm  -7.58887 -7.66648 16.673
RightHand  0.359011 1.05807 6.37542
LeftUpLeg  -0.784965 20.7864 6.9758
LeftLeg  52.0386 -0.411995 -0.104323
LeftFoot  1.86809 2.3136 -19.905
LeftToes  -4.03819e-010 -8.71445e-011 8.52097e-011
947
root  1.89149 37.0763 -20.4761 162.308 -70.8231 -157.254
RightUpLeg  -26.9622 2.50207 11.8534
RightLeg  37.7048 -9.64358 -8.19192
RightFoot  -14.2006 -0.0734117 0.91034
RightToes  -5.8209e-011 0 -3.6325e-017
Spine  9.28648 -3.65539 8.7347
Spine1  5.03124 -4.10358 6.71248
HEad  7.23854 -5.82632 -4.49659
LeftShoulder1  2.22674 -2.79767 -29.2874
LeftArm  23.467 -16.0403 -46.5614
LeftForeArm  8.52851 -4.15058 -18.1983
LeftHand  0.285303 -2.01478 -4.31531
RightShoulder  7.45072 9.13698 51.61
RightArm  -3.61071 -0.853522 9.72417
RightForeArm  -6.78407 -6.49824 17.5435
RightHand  0.336209 1.84278 5.24233
LeftUpLeg  -8.07344 19.3772 7.74423
LeftLeg  61.6109 -0.995693 -1.41622
LeftFoot  8.18734 2.60877 -15.374
LeftToes  -4.03819e-010 -8.71445e-011 8.52097e-011
948
root  0.489353 37.5249 -20.3125 163.385 -71.3246 -158.517
RightUpLeg  -23.3677 1.81384 10.2276
RightLeg  35.3619 -9.46836 -7.42521
RightFoot  -15.117 -0.030013 2.19538
RightToes  -5.8209e-011 0 -3.6325e-017
Spine  9.37984 -3.3361 8.88324
Spine1  4.95137 -3.53479 6.0602
HEad  6.22584 -2.30267 -0.81064
LeftShoulder1  2.21346 -2.57939 -30.3517
LeftArm  23.1625 -12.13 -43.7123
LeftForeArm  6.13538 -3.10243 -18.698
LeftHand  0.287771 -1.65342 -4.61279
RightShoulder  7.68247 9.70652 50.9322
RightArm  1.58944 0.601208 10.727
RightForeArm  -5.14704 -3.49056 18.1513
RightHand  0.30867 2.66348 4.24225
LeftUpLeg  -14.1299 17.342 6.90116
LeftLeg  66.3124 -0.899095 -1.55826
LeftFoot  4.25466 1.90797 -14.0641
LeftToes  -4.03819e-010 -8.71445e-011 8.52097e-011
949
root  -0.987607 37.9963 -20.1353 165.583 -71.8797 -161.184
RightUpLeg  -19.1357 0.509525 8.08672
RightLeg  32.2955 -8.92449 -6.29767
RightFoot  -15.8012 0.0327179 3.58906
RightToes  -5.8209e-011 0 -3.6325e-017
Spine  9.4071 -3.00185 8.99397
Spine1  4.4836 -2.83625 4.67913
HEad  6.11916 1.04208 2.6286
LeftShoulder1  2.20643 -2.47139 -30.8966
LeftArm  24.6354 -8.42735 -40.9732
LeftForeArm  1.94181 -2.15222 -19.3146
LeftHand  0.281275 -1.13608 -4.9179
RightShoulder  7.72219 9.97923 50.1687
RightArm  8.32835 1.4833 12.1043
RightForeArm  -5.70164 1.67415 18.0602
RightHand  0.299429 3.40239 3.70786
LeftUpLeg  -18.9632 15.8566 5.99337
LeftLeg  66.6109 -0.844081 -1.44692
LeftFoot  3.02718 1.63432 -13.0669
LeftToes  -4.03819e-010 -8.71445e-011 8.52097e-011
